<svg width="69"
     height="48"
     viewBox="0 0 69 48"
     fill="none"
     xmlns="http://www.w3.org/2000/svg"
     id="kit">
    <path fill-rule="evenodd"
          clip-rule="evenodd"
          d="M65.4139 11.8845C65.7787 11.8434 66.0398 11.5249 65.9972 11.1733C65.9545 10.8215 65.6242 10.5698 65.2594 10.6109L46.4101 12.7356L45.5818 12.4052C45.2425 12.2698 44.8536 12.4252 44.7131 12.7524L44.2876 13.7433C44.2164 13.9091 44.2229 14.0873 44.2905 14.2403L32.8145 28.5743L33.5356 18.6306L33.572 18.6193C34.1113 18.4526 34.4082 17.8961 34.2354 17.3763L34.0025 16.6762C33.8716 16.283 33.4348 16.0662 33.0267 16.1924L32.2834 16.4222C31.7908 16.5745 31.5003 17.0523 31.5858 17.5301L12.2858 35.5939C12.0223 35.8404 12.0161 36.2464 12.2719 36.5004C12.5277 36.7544 12.9488 36.7605 13.2123 36.5138L32.1937 18.7482L31.4241 29.3606L30.976 29.6045C30.628 29.7938 30.5063 30.2202 30.705 30.5545L31.2609 31.4899C31.4588 31.8227 31.8989 31.938 32.2442 31.7474L33.1749 31.2333C33.5059 31.0507 33.6317 30.6509 33.462 30.3216L33.3186 30.0434L45.4438 14.8985L45.6979 14.9999C46.0374 15.1353 46.4264 14.9798 46.5668 14.6527L46.8573 13.9762L65.4139 11.8845Z"
          fill="url(#paint0_linear_252_28)" />
    <path d="M49.3746 7.75371C49.3096 7.69112 49.3096 7.58963 49.3746 7.52704L50.5641 6.38025C50.629 6.31767 50.7342 6.31767 50.7992 6.38025L51.9888 7.52704C52.0537 7.58963 52.0537 7.69112 51.9888 7.75371L50.7992 8.90049C50.7342 8.96308 50.629 8.96308 50.5641 8.90049L49.3746 7.75371Z"
          fill="#263238" />
    <path fill-rule="evenodd"
          clip-rule="evenodd"
          d="M46.5217 0.162812C46.9332 -0.0161919 47.3907 -0.0445711 47.8172 0.0628093C48.2893 0.181641 48.9851 0.359308 49.2324 0.437288C49.612 0.557002 50.3661 0.817873 51.0771 1.07038C52.4875 1.57129 54.5975 2.40564 54.8838 2.5191L54.8862 2.51988L54.8971 2.52346C54.9039 2.52564 54.9146 2.52919 54.926 2.5332C54.9362 2.53679 54.9534 2.54307 54.9727 2.55152C54.9734 2.55178 54.9739 2.55204 54.9746 2.5523L61.5141 5.38387L68.6381 8.57725C68.8671 8.67989 68.9664 8.94202 68.86 9.16276C68.7534 9.3835 68.4816 9.47923 68.2526 9.37659L61.1367 6.18682L61.1312 6.18443L54.6064 3.35926C54.6055 3.35895 54.6045 3.3586 54.6032 3.3582C54.5991 3.35685 54.5892 3.35366 54.5809 3.35083C54.5726 3.34806 54.5579 3.34303 54.5418 3.33662C54.2761 3.23132 52.1623 2.39529 50.7611 1.89755C50.0491 1.64473 49.3096 1.38916 48.948 1.27513C48.7343 1.20772 48.0736 1.0384 47.5862 0.915744C47.3514 0.856634 47.109 0.874409 46.8975 0.966373C46.573 1.10749 46.1652 1.2951 45.8743 1.46203C45.3278 1.77558 44.0565 2.5467 43.9268 2.6254C43.9171 2.63132 43.9085 2.63652 43.8989 2.64205L41.4919 4.0503L23.7898 13.923L9.87094 36.2027C9.82385 36.2777 9.75847 36.341 9.68066 36.3869L1.80854 41.021L1.03781 45.9568L10.382 39.1251C10.6188 38.952 10.9539 38.984 11.1508 39.1987L17.4076 46.0209L18.282 43.1649C18.3536 42.9314 18.6077 42.7981 18.85 42.867C19.0922 42.9359 19.2304 43.1811 19.159 43.4145L18.1073 46.849C17.981 47.2619 17.4327 47.3791 17.1369 47.0567L10.6785 40.0146L0.911774 47.1552C0.505734 47.4521 -0.0690523 47.1232 0.00680502 46.6373L0.92837 40.7356C0.95339 40.5755 1.05067 40.4343 1.19401 40.3499L9.13172 35.6772L23.128 13.2736L41.0256 3.29191L43.4245 1.88848C43.428 1.8864 43.4311 1.88455 43.4342 1.88271C43.436 1.88163 43.4377 1.88056 43.4396 1.87942C43.5647 1.80349 44.8479 1.02514 45.4065 0.704538C45.7446 0.510497 46.1925 0.305907 46.5217 0.162812ZM9.2037 35.6349C9.20353 35.6349 9.20387 35.6347 9.2037 35.6349ZM68.6244 12.6163C68.8197 12.7706 68.8483 13.0483 68.6881 13.2366L65.7519 16.6902L53.7443 24.7095L38.7351 26.2977C38.4842 26.3243 38.2584 26.1496 38.2309 25.9077C38.2032 25.6656 38.3844 25.448 38.6355 25.4214L53.414 23.8575L65.1258 16.036L67.9809 12.6778C68.1409 12.4895 68.429 12.4619 68.6244 12.6163ZM64.1186 13.7133C64.267 13.9103 64.2216 14.186 64.0173 14.329L52.7968 22.1822L41.5827 23.5454C41.3321 23.5758 41.1035 23.4048 41.0719 23.1632C41.0403 22.9217 41.2177 22.7012 41.4683 22.6709L52.4496 21.336L63.4799 13.6156C63.6843 13.4726 63.9702 13.5163 64.1186 13.7133ZM57.6011 14.1834C57.7632 14.37 57.7379 14.6479 57.5443 14.8043L51.3724 19.7899L44.7125 20.5805C44.462 20.6102 44.2338 20.4384 44.2029 20.1969C44.1721 19.9553 44.3503 19.7352 44.6009 19.7055L50.9922 18.9467L56.9571 14.1286C57.1506 13.9722 57.4391 13.9968 57.6011 14.1834ZM30.3721 28.4803C30.4929 28.6941 30.411 28.9619 30.1893 29.0782L19.3964 34.7444C19.1747 34.8608 18.8969 34.7819 18.7762 34.568C18.6555 34.3544 18.7373 34.0866 18.9591 33.9702L29.7519 28.3041C29.9738 28.1876 30.2514 28.2666 30.3721 28.4803Z"
          fill="#263238" />
    <defs>
        <linearGradient id="paint0_linear_252_28"
                        x1="12.084"
                        y1="36.7052"
                        x2="65.1943"
                        y2="9.04605"
                        gradientUnits="userSpaceOnUse">
            <stop offset="0.0001"
                  stop-color="#0BBBEF" />
            <stop offset="0.395412"
                  stop-color="#00A0E3" />
            <stop offset="0.67667"
                  stop-color="#126797" />
            <stop offset="0.792521"
                  stop-color="#005893" />
            <stop offset="1"
                  stop-color="#142647" />
        </linearGradient>
    </defs>
</svg>