<?xml version="1.0" encoding="utf-8"?><svg viewBox="0 0 69 48" xmlns="http://www.w3.org/2000/svg" xmlns:xlink="http://www.w3.org/1999/xlink"><style>:root>svg{display:none}:root>svg:target{display:block}</style><svg viewBox="0 0 69 48" id="kit" xmlns="http://www.w3.org/2000/svg"><path fill-rule="evenodd" clip-rule="evenodd" d="M65.414 11.884a.647.647 0 00.583-.71.66.66 0 00-.738-.563L46.41 12.736l-.828-.33a.674.674 0 00-.869.346l-.425.991a.619.619 0 00.003.497L32.815 28.574l.72-9.943.037-.012a.98.98 0 00.663-1.243l-.233-.7a.782.782 0 00-.975-.484l-.744.23a.986.986 0 00-.697 1.108l-19.3 18.064a.625.625 0 00-.014.906c.256.254.677.26.94.014l18.982-17.766-.77 10.613-.448.244a.681.681 0 00-.271.95l.556.935a.735.735 0 00.983.257l.93-.514a.682.682 0 00.288-.911l-.143-.279L45.444 14.9l.254.1c.34.136.728-.02.869-.346l.29-.677 18.557-2.092z"/><path d="M49.375 7.754a.156.156 0 010-.227l1.19-1.147a.17.17 0 01.234 0l1.19 1.147a.156.156 0 010 .227L50.799 8.9a.17.17 0 01-.235 0l-1.19-1.146z"/><path fill-rule="evenodd" clip-rule="evenodd" d="M46.522.163a2.017 2.017 0 011.295-.1 39.12 39.12 0 011.415.374c.38.12 1.134.38 1.845.633 1.41.501 3.52 1.336 3.807 1.45h.002l.011.003a1.152 1.152 0 01.076.029h.002l6.54 2.832 7.123 3.193a.434.434 0 01.222.586.465.465 0 01-.607.214l-7.116-3.19-.006-.003-6.525-2.825h-.003l-.022-.008a68.485 68.485 0 00-5.633-2.076 39.379 39.379 0 00-1.362-.36 1.072 1.072 0 00-.688.051 11.38 11.38 0 00-1.024.496 137.859 137.859 0 00-1.975 1.18L41.492 4.05 23.79 13.923 9.87 36.203a.56.56 0 01-.19.184L1.81 41.02l-.771 4.936 9.344-6.832a.583.583 0 01.769.074l6.257 6.822.874-2.856a.46.46 0 01.568-.298c.242.069.38.314.309.547l-1.052 3.435c-.126.413-.674.53-.97.208l-6.459-7.042-9.766 7.14c-.406.297-.981-.032-.905-.518l.921-5.901a.547.547 0 01.266-.386l7.938-4.673 13.996-22.403 17.898-9.982 2.398-1.404.01-.005.006-.004c.125-.076 1.408-.854 1.967-1.174.338-.195.786-.4 1.115-.542zM9.204 35.635zm59.42-23.019a.43.43 0 01.064.62l-2.936 3.454-12.008 8.02-15.009 1.588a.453.453 0 01-.504-.39.445.445 0 01.404-.487l14.779-1.563 11.712-7.822 2.855-3.358a.469.469 0 01.643-.062zm-4.505 1.097a.43.43 0 01-.102.616l-11.22 7.853-11.214 1.363a.454.454 0 01-.511-.382.444.444 0 01.396-.492l10.982-1.335 11.03-7.72c.204-.143.49-.1.639.097zm-6.518.47a.43.43 0 01-.057.621l-6.172 4.986-6.66.79a.454.454 0 01-.51-.383.445.445 0 01.399-.491l6.391-.76 5.965-4.817a.469.469 0 01.644.054zM30.372 28.48a.433.433 0 01-.183.598l-10.793 5.666a.466.466 0 01-.62-.176.433.433 0 01.183-.598l10.793-5.666a.466.466 0 01.62.176z"/><defs><linearGradient id="aa" x1="12.084" y1="36.705" x2="65.194" y2="9.046" gradientUnits="userSpaceOnUse"><stop offset="0" stop-color="#0BBBEF"/><stop offset=".395" stop-color="#00A0E3"/><stop offset=".677" stop-color="#126797"/><stop offset=".793" stop-color="#005893"/><stop offset="1" stop-color="#142647"/></linearGradient></defs></svg></svg>